<svg width="35" height="35" viewBox="0 0 35 35" fill="none" xmlns="http://www.w3.org/2000/svg">
<path d="M4.375 8.75002H7.29167M7.29167 8.75002H30.625M7.29167 8.75002V29.1667C7.29167 29.9402 7.59896 30.6821 8.14594 31.2291C8.69292 31.7761 9.43479 32.0834 10.2083 32.0834H24.7917C25.5652 32.0834 26.3071 31.7761 26.8541 31.2291C27.401 30.6821 27.7083 29.9402 27.7083 29.1667V8.75002M11.6667 8.75002V5.83335C11.6667 5.05981 11.974 4.31794 12.5209 3.77096C13.0679 3.22398 13.8098 2.91669 14.5833 2.91669H20.4167C21.1902 2.91669 21.9321 3.22398 22.4791 3.77096C23.026 4.31794 23.3333 5.05981 23.3333 5.83335V8.75002M14.5833 16.0417V24.7917M20.4167 16.0417V24.7917" stroke="#FF3B30" stroke-width="4" stroke-linecap="round" stroke-linejoin="round"/>
</svg>
