<svg width="44" height="44" viewBox="0 0 44 44" fill="none" xmlns="http://www.w3.org/2000/svg">
<path d="M0.5 22C0.5 10.1259 10.1259 0.5 22 0.5C33.8741 0.5 43.5 10.1259 43.5 22C43.5 33.8741 33.8741 43.5 22 43.5C10.1259 43.5 0.5 33.8741 0.5 22Z" fill="#2C2C2C"/>
<path d="M0.5 22C0.5 10.1259 10.1259 0.5 22 0.5C33.8741 0.5 43.5 10.1259 43.5 22C43.5 33.8741 33.8741 43.5 22 43.5C10.1259 43.5 0.5 33.8741 0.5 22Z" stroke="#2C2C2C" stroke-linecap="round"/>
<g clip-path="url(#clip0_4_3994)">
<path d="M26.9499 26.95C25.5254 28.0358 23.7908 28.6374 21.9999 28.6667C16.1666 28.6667 12.8333 22 12.8333 22C13.8698 20.0682 15.3075 18.3805 17.0499 17.05M20.2499 15.5333C20.8235 15.3991 21.4108 15.3319 21.9999 15.3333C27.8333 15.3333 31.1666 22 31.1666 22C30.6607 22.9463 30.0575 23.8373 29.3666 24.6583M23.7666 23.7667C23.5377 24.0123 23.2617 24.2093 22.955 24.3459C22.6484 24.4826 22.3173 24.556 21.9817 24.562C21.646 24.5679 21.3126 24.5061 21.0013 24.3804C20.69 24.2547 20.4072 24.0675 20.1698 23.8301C19.9324 23.5927 19.7452 23.31 19.6195 22.9987C19.4938 22.6874 19.432 22.3539 19.4379 22.0183C19.4439 21.6826 19.5173 21.3515 19.654 21.0449C19.7906 20.7382 19.9876 20.4622 20.2333 20.2333M12.8333 12.8333L31.1666 31.1667" stroke="#F5F5F5" stroke-width="2" stroke-linecap="round" stroke-linejoin="round"/>
</g>
<defs>
<clipPath id="clip0_4_3994">
<rect width="20" height="20" fill="white" transform="translate(12 12)"/>
</clipPath>
</defs>
</svg>
